<svg width="24" height="24" viewBox="0 0 24 24" fill="none" xmlns="http://www.w3.org/2000/svg">
<g clip-path="url(#clip0_174_250)">
<path d="M20.164 13H5.419L4.478 5H14V3H4.242L4.2 2.648C4.11382 1.9186 3.76306 1.24615 3.21419 0.758104C2.66532 0.270054 1.95647 0.000312836 1.222 0L0 0V2H1.222C1.46693 2.00003 1.70334 2.08996 1.88637 2.25272C2.06941 2.41547 2.18634 2.63975 2.215 2.883L3.8 16.351C3.88595 17.0806 4.23662 17.7533 4.78551 18.2415C5.3344 18.7298 6.04337 18.9997 6.778 19H20V17H6.778C6.53291 16.9999 6.29638 16.9099 6.11333 16.7469C5.93027 16.5839 5.81343 16.3594 5.785 16.116L5.654 15H21.836L22.736 10H20.705L20.164 13Z" fill="#585858"/>
<path d="M7.00024 24.0005C8.10481 24.0005 9.00024 23.1051 9.00024 22.0005C9.00024 20.8959 8.10481 20.0005 7.00024 20.0005C5.89567 20.0005 5.00024 20.8959 5.00024 22.0005C5.00024 23.1051 5.89567 24.0005 7.00024 24.0005Z" fill="#585858"/>
<path d="M17 24.0005C18.1046 24.0005 19 23.1051 19 22.0005C19 20.8959 18.1046 20.0005 17 20.0005C15.8954 20.0005 15 20.8959 15 22.0005C15 23.1051 15.8954 24.0005 17 24.0005Z" fill="#585858"/>
<path d="M20.9997 3V0H18.9998V3H15.9998V5H18.9998V8H20.9997V5H23.9997V3H20.9997Z" fill="#585858"/>
</g>
<defs>
<clipPath id="clip0_174_250">
<rect width="24" height="24" fill="white"/>
</clipPath>
</defs>
</svg>
